<svg preserveAspectRatio="none" width="100%" height="100%" overflow="visible" style="display: block;" viewBox="0 0 32 32" fill="none" xmlns="http://www.w3.org/2000/svg">
<g id="Bible Icon">
<path id="Combined-Shape" fill-rule="evenodd" clip-rule="evenodd" d="M19.6013 2.66667C24.124 2.66667 26.7187 4.90533 26.7187 8.80533V28.1867C26.7187 29 26.3 29.732 25.596 30.1413C24.8947 30.552 24.0493 30.56 23.34 30.16L15.3933 25.6707L7.37333 30.1693C7.02667 30.364 6.64667 30.4627 6.26533 30.4627C5.872 30.4627 5.47867 30.3573 5.12133 30.1467C4.41867 29.7373 4 29.0053 4 28.1933V8.56133C4 4.81467 6.596 2.66667 11.1227 2.66667H19.6013ZM19.6013 4.66667H11.1227C7.724 4.66667 6 5.976 6 8.56133V28.1933C6 28.3187 6.072 28.3867 6.132 28.4213C6.192 28.4587 6.28667 28.4853 6.396 28.424L14.9053 23.6507C15.2093 23.4813 15.5813 23.48 15.8867 23.652L24.3227 28.4173C24.4333 28.4813 24.528 28.452 24.588 28.416C24.648 28.38 24.7187 28.312 24.7187 28.1867L24.7182 8.65339C24.7081 7.50583 24.4861 4.66667 19.6013 4.66667ZM20.1864 11.638C20.7384 11.638 21.1864 12.086 21.1864 12.638C21.1864 13.19 20.7384 13.638 20.1864 13.638H10.4291C9.87707 13.638 9.42907 13.19 9.42907 12.638C9.42907 12.086 9.87707 11.638 10.4291 11.638H20.1864Z" fill="var(--fill-0, white)"/>
</g>
</svg>
